<svg xmlns="http://www.w3.org/2000/svg" viewBox="0 0 512 512"><rect width="512" height="512" rx="112" fill="#050505"/><rect x="54" y="54" width="404" height="404" rx="96" fill="#bbf7d0" opacity=".1"/><path d="M112 296c59-6 94-25 132-68l43-50c13-15 35-18 51-5l67 53c14 11 19 28 13 45l-17 50c-6 16-19 26-36 26H139c-20 0-34-16-27-51Z" fill="none" stroke="#bbf7d0" stroke-width="24" stroke-linejoin="round"/><path d="M230 236c30 27 62 43 105 45M155 320h190" fill="none" stroke="#22c55e" stroke-width="21" stroke-linecap="round"/><circle cx="164" cy="389" r="16" fill="#fff"/><circle cx="354" cy="389" r="16" fill="#fff"/></svg>