<svg xmlns="http://www.w3.org/2000/svg" style="display:none">
<symbol id="menu" viewBox="0 0 24 24"><path d="M4 6h16M4 12h16M4 18h16" fill="none" stroke="currentColor" stroke-width="2" stroke-linecap="round"/></symbol>
<symbol id="home" viewBox="0 0 24 24"><path d="m3 10 9-7 9 7v10a1 1 0 0 1-1 1h-5v-6H9v6H4a1 1 0 0 1-1-1z" fill="none" stroke="currentColor" stroke-width="1.8" stroke-linejoin="round"/></symbol>
<symbol id="plus" viewBox="0 0 24 24"><path d="M12 5v14M5 12h14" fill="none" stroke="currentColor" stroke-width="2" stroke-linecap="round"/></symbol>
<symbol id="trash" viewBox="0 0 24 24"><path d="M4 7h16M9 7V4h6v3m-9 0 1 13h10l1-13M10 11v5M14 11v5" fill="none" stroke="currentColor" stroke-width="1.8" stroke-linecap="round" stroke-linejoin="round"/></symbol>
<symbol id="play" viewBox="0 0 24 24"><path d="m8 5 11 7-11 7z" fill="none" stroke="currentColor" stroke-width="2" stroke-linejoin="round"/></symbol>
<symbol id="eye" viewBox="0 0 24 24"><path d="M2.5 12s3.5-6 9.5-6 9.5 6 9.5 6-3.5 6-9.5 6-9.5-6-9.5-6z" fill="none" stroke="currentColor" stroke-width="1.8"/><circle cx="12" cy="12" r="2.5" fill="none" stroke="currentColor" stroke-width="1.8"/></symbol>
<symbol id="eye-off" viewBox="0 0 24 24"><path d="m4 4 16 16M10.6 6.2A10.5 10.5 0 0 1 12 6c6 0 9.5 6 9.5 6a15 15 0 0 1-3.1 3.8M6.2 7.7C3.8 9.4 2.5 12 2.5 12S6 18 12 18c1.1 0 2.1-.2 3-.5" fill="none" stroke="currentColor" stroke-width="1.8" stroke-linecap="round"/></symbol>
<symbol id="pause" viewBox="0 0 24 24"><path d="M8 5v14M16 5v14" fill="none" stroke="currentColor" stroke-width="2.2" stroke-linecap="round"/></symbol>
<symbol id="stop" viewBox="0 0 24 24"><rect x="6" y="6" width="12" height="12" rx="2" fill="none" stroke="currentColor" stroke-width="2"/></symbol>
<symbol id="next" viewBox="0 0 24 24"><path d="m7 5 7 7-7 7M17 5v14" fill="none" stroke="currentColor" stroke-width="2" stroke-linecap="round" stroke-linejoin="round"/></symbol>
<symbol id="refresh" viewBox="0 0 24 24"><path d="M20 11a8 8 0 0 0-14-4L4 9M4 9V4m0 5h5M4 13a8 8 0 0 0 14 4l2-2m0 0v5m0-5h-5" fill="none" stroke="currentColor" stroke-width="1.8" stroke-linecap="round" stroke-linejoin="round"/></symbol>
<symbol id="vote" viewBox="0 0 24 24"><path d="M7 4h10v16H7zM9 8h6M9 12h6M9 16h3" fill="none" stroke="currentColor" stroke-width="1.8" stroke-linecap="round"/><path d="m14 15 2 2 4-5" fill="none" stroke="currentColor" stroke-width="1.8" stroke-linecap="round" stroke-linejoin="round"/></symbol>
<symbol id="user" viewBox="0 0 24 24"><circle cx="12" cy="8" r="3.2" fill="none" stroke="currentColor" stroke-width="1.8"/><path d="M5 20c.8-3.6 3.1-5.4 7-5.4s6.2 1.8 7 5.4" fill="none" stroke="currentColor" stroke-width="1.8" stroke-linecap="round"/></symbol>
<symbol id="check" viewBox="0 0 24 24"><path d="m5 12 4 4L19 7" fill="none" stroke="currentColor" stroke-width="2" stroke-linecap="round" stroke-linejoin="round"/></symbol>
<symbol id="close" viewBox="0 0 24 24"><path d="m6 6 12 12M18 6 6 18" fill="none" stroke="currentColor" stroke-width="2" stroke-linecap="round"/></symbol>
<symbol id="crown" viewBox="0 0 24 24"><path d="m4 18 2-10 6 5 6-5 2 10H4Z" fill="none" stroke="currentColor" stroke-width="1.8" stroke-linejoin="round"/><path d="M5 21h14" fill="none" stroke="currentColor" stroke-width="1.8" stroke-linecap="round"/></symbol>
<symbol id="flame" viewBox="0 0 24 24"><path d="M13 3c.6 3.2-1.4 4.5-3 6.2C8.5 10.8 8 12.3 8 14a4 4 0 0 0 8 0c0-1.6-.5-3.2-1.7-4.7-.1 2-1 3-2 3.7.3-3.1 2.4-5.2.7-10Z" fill="none" stroke="currentColor" stroke-width="1.8" stroke-linejoin="round"/></symbol>
<symbol id="question" viewBox="0 0 24 24"><circle cx="12" cy="12" r="9" fill="none" stroke="currentColor" stroke-width="1.8"/><path d="M9.5 9a2.7 2.7 0 1 1 4.2 2.2c-1.2.8-1.7 1.2-1.7 2.8M12 17h.01" fill="none" stroke="currentColor" stroke-width="1.8" stroke-linecap="round"/></symbol>
<symbol id="music" viewBox="0 0 24 24"><path d="M9 18V5l10-2v13M9 8l10-2" fill="none" stroke="currentColor" stroke-width="1.8" stroke-linejoin="round"/><circle cx="6.5" cy="18" r="3" fill="none" stroke="currentColor" stroke-width="1.8"/><circle cx="16.5" cy="16" r="3" fill="none" stroke="currentColor" stroke-width="1.8"/></symbol>
<symbol id="impostor" viewBox="0 0 24 24"><path d="M7 9c1-5 9-5 10 0l-1 5c-.4 2-1.8 3-4 3s-3.6-1-4-3z" fill="none" stroke="currentColor" stroke-width="1.7"/><path d="M6 11h12M8 20c1.2-2 2.5-3 4-3s2.8 1 4 3" fill="none" stroke="currentColor" stroke-width="1.7" stroke-linecap="round"/><circle cx="18.5" cy="17.5" r="3.5" fill="none" stroke="currentColor" stroke-width="1.5"/><path d="m20.8 19.8 1.8 1.8" stroke="currentColor" stroke-width="1.5" stroke-linecap="round"/></symbol>
<symbol id="warning" viewBox="0 0 24 24"><path d="m12 4 9 16H3z" fill="none" stroke="currentColor" stroke-width="1.8" stroke-linejoin="round"/><path d="M12 9v5M12 17h.01" fill="none" stroke="currentColor" stroke-width="1.8" stroke-linecap="round"/></symbol>
<symbol id="bomb" viewBox="0 0 24 24"><circle cx="11" cy="13" r="7" fill="none" stroke="currentColor" stroke-width="1.8"/><path d="M16 8c2-2 3-2 4-4M17 4l3 0M19 8l2 1" fill="none" stroke="currentColor" stroke-width="1.7" stroke-linecap="round"/><path d="M8 10c1-1 2-1 3-2" fill="none" stroke="currentColor" stroke-width="1.5" stroke-linecap="round"/></symbol>
<symbol id="theme" viewBox="0 0 24 24"><path d="M12 3v2M12 19v2M3 12h2M19 12h2M5.64 5.64l1.42 1.42M16.94 16.94l1.42 1.42M18.36 5.64l-1.42 1.42M7.06 16.94l-1.42 1.42" fill="none" stroke="currentColor" stroke-width="1.8" stroke-linecap="round"/><circle cx="12" cy="12" r="4" fill="none" stroke="currentColor" stroke-width="1.8"/></symbol>
</svg>